<?xml version="1.0" encoding="UTF-8" standalone="no"?>
<svg
   version="1.1"
   id="Ebene_1"
   x="0px"
   y="0px"
   viewBox="0 0 731.09996 91.199995"
   xml:space="preserve"
   sodipodi:docname="FWF_Logo_Zusatz_Weiß_RGB_DE.svg"
   inkscape:version="1.4.3 (0d15f75042, 2025-12-25)"
   width="731.09998"
   height="91.199997"
   xmlns:inkscape="http://www.inkscape.org/namespaces/inkscape"
   xmlns:sodipodi="http://sodipodi.sourceforge.net/DTD/sodipodi-0.dtd"
   xmlns="http://www.w3.org/2000/svg"
   xmlns:svg="http://www.w3.org/2000/svg"><defs
   id="defs35" /><sodipodi:namedview
   id="namedview35"
   pagecolor="#505050"
   bordercolor="#eeeeee"
   borderopacity="1"
   inkscape:showpageshadow="0"
   inkscape:pageopacity="0"
   inkscape:pagecheckerboard="0"
   inkscape:deskcolor="#505050"
   inkscape:zoom="0.43270833"
   inkscape:cx="340.87627"
   inkscape:cy="131.72846"
   inkscape:window-width="1074"
   inkscape:window-height="1037"
   inkscape:window-x="0"
   inkscape:window-y="0"
   inkscape:window-maximized="0"
   inkscape:current-layer="Ebene_1" />
<style
   type="text/css"
   id="style1">
	.st0{fill:#292C6E;}
	.st1{font-family:'AeonikPro-Regular';}
	.st2{font-size:13.1586px;}
</style>
<g
   id="g2"
   style="fill:#ffffff;fill-opacity:1;stroke:none;stroke-opacity:1"
   transform="translate(-72.4,-73.6)">
	<polygon
   class="st0"
   points="85.4,164.5 85.5,124.6 134.9,124.6 134.9,113.5 85.5,113.5 85.4,84.8 141.4,84.8 141.4,73.6 91.9,73.6 72.4,93.1 72.4,164.5 "
   id="polygon1"
   style="fill:#ffffff;fill-opacity:1;stroke:none;stroke-opacity:1" />
	<polygon
   class="st0"
   points="272.1,93.1 272.1,164.5 285,164.5 285.1,124.6 334.5,124.6 334.5,113.5 285.1,113.5 285,84.8 341,84.8 341,73.6 291.5,73.6 "
   id="polygon2"
   style="fill:#ffffff;fill-opacity:1;stroke:none;stroke-opacity:1" />
	<path
   class="st0"
   d="m 232.5,154.7 -18.6,-81 H 199 l -18.6,81 -18.6,-81 H 148 l 23,90.8 c 5.3,0 12.8,0 18.1,0 2.4,-11 14,-56.1 17.4,-74 2,10 17.1,72.9 17.4,74 5.3,0 12.8,0 18.1,0 l 23,-90.8 h -13.8 z"
   id="path2"
   style="fill:#ffffff;fill-opacity:1;stroke:none;stroke-opacity:1" />
</g>
<g
   id="g35"
   style="fill:#ffffff;fill-opacity:1;stroke:none;stroke-opacity:1"
   transform="translate(-72.4,-73.6)">
	<path
   class="st0"
   d="m 391.4,115.7 c -9.3,0 -15.8,-7.1 -15.8,-16.9 0,-9.8 6.5,-16.9 15.8,-16.9 9.3,0 15.8,7.1 15.8,16.9 0,9.8 -6.5,16.9 -15.8,16.9 z m 0,-3.8 c 6.9,0 11.6,-5.5 11.6,-13.1 0,-7.6 -4.7,-13.1 -11.6,-13.1 -6.9,0 -11.6,5.5 -11.6,13.1 0,7.6 4.6,13.1 11.6,13.1 z M 387,73.6 c 1.5,0 2.5,1 2.5,2.5 0,1.4 -1,2.4 -2.5,2.4 -1.4,0 -2.5,-1 -2.5,-2.4 0.1,-1.5 1.1,-2.5 2.5,-2.5 z m 8.7,0 c 1.4,0 2.5,1 2.5,2.5 0,1.4 -1,2.4 -2.5,2.4 -1.4,0 -2.5,-1 -2.5,-2.4 0,-1.5 1.1,-2.5 2.5,-2.5 z"
   id="path3"
   style="fill:#ffffff;fill-opacity:1;stroke:none;stroke-opacity:1" />
	<path
   class="st0"
   d="m 415,107.5 c 0.1,2.8 2.7,4.9 6.7,4.9 3.4,0 5.8,-1.5 5.8,-3.7 0,-3 -2.7,-3.3 -6.3,-3.7 -5.4,-0.7 -9.7,-1.8 -9.7,-6.8 0,-4.4 4,-7.3 9.5,-7.3 5.5,0 9.5,2.6 9.9,7.6 h -4 c -0.3,-2.5 -2.6,-4.3 -5.9,-4.3 -3.4,0 -5.6,1.4 -5.6,3.7 0,2.7 2.6,3 6.1,3.4 5.5,0.7 9.9,1.7 9.9,7.1 0,4.5 -4.3,7.3 -9.7,7.3 -6.3,0 -10.6,-2.9 -10.7,-8.2 z"
   id="path4"
   style="fill:#ffffff;fill-opacity:1;stroke:none;stroke-opacity:1" />
	<path
   class="st0"
   d="m 437.7,94.8 h -4.4 v -3.6 h 4.4 v -6.8 h 3.9 v 6.8 h 6.3 v 3.6 h -6.3 v 14.3 c 0,2 0.7,2.8 2.8,2.8 h 3.8 v 3.6 H 444 c -4.6,0 -6.3,-2 -6.3,-6.3 z"
   id="path5"
   style="fill:#ffffff;fill-opacity:1;stroke:none;stroke-opacity:1" />
	<path
   class="st0"
   d="m 450.1,103.4 c 0,-7.3 4.6,-12.4 11.5,-12.4 6.9,0 11.3,4.3 11.5,11.5 0,0.5 0,1.1 -0.1,1.7 h -18.8 v 0.3 c 0.1,4.6 3,7.8 7.6,7.8 3.4,0 6.1,-1.8 6.9,-4.9 h 3.9 c -0.9,4.8 -4.9,8.4 -10.5,8.4 -7.3,-0.1 -12,-5 -12,-12.4 z m 18.8,-2.5 c -0.4,-4.2 -3.2,-6.5 -7.3,-6.5 -3.6,0 -6.8,2.6 -7.2,6.5 z"
   id="path6"
   style="fill:#ffffff;fill-opacity:1;stroke:none;stroke-opacity:1" />
	<path
   class="st0"
   d="m 490,91.3 v 3.8 h -2 c -5.1,0 -6.4,4.2 -6.4,8.1 v 12.3 h -3.9 V 91.3 h 3.4 l 0.5,3.7 c 1.1,-1.8 3,-3.7 7.3,-3.7 z"
   id="path7"
   style="fill:#ffffff;fill-opacity:1;stroke:none;stroke-opacity:1" />
	<path
   class="st0"
   d="m 505.6,91.3 v 3.8 h -1.9 c -5.1,0 -6.4,4.2 -6.4,8.1 v 12.3 h -3.9 V 91.3 h 3.4 l 0.5,3.7 c 1.1,-1.8 3,-3.7 7.3,-3.7 z"
   id="path8"
   style="fill:#ffffff;fill-opacity:1;stroke:none;stroke-opacity:1" />
	<path
   class="st0"
   d="m 507.6,103.4 c 0,-7.3 4.6,-12.4 11.5,-12.4 6.9,0 11.3,4.3 11.5,11.5 0,0.5 0,1.1 -0.1,1.7 h -18.8 v 0.3 c 0.1,4.6 3,7.8 7.6,7.8 3.4,0 6.1,-1.8 6.9,-4.9 h 3.9 c -0.9,4.8 -4.9,8.4 -10.5,8.4 -7.3,-0.1 -12,-5 -12,-12.4 z m 18.8,-2.5 c -0.4,-4.2 -3.2,-6.5 -7.3,-6.5 -3.6,0 -6.8,2.6 -7.2,6.5 z"
   id="path9"
   style="fill:#ffffff;fill-opacity:1;stroke:none;stroke-opacity:1" />
	<path
   class="st0"
   d="m 534.6,84.7 c 0,-1.5 1.1,-2.5 2.5,-2.5 1.4,0 2.5,1 2.5,2.5 0,1.5 -1.1,2.5 -2.5,2.5 -1.4,0 -2.5,-1 -2.5,-2.5 z m 0.5,6.6 h 3.9 v 24.2 h -3.9 z"
   id="path10"
   style="fill:#ffffff;fill-opacity:1;stroke:none;stroke-opacity:1" />
	<path
   class="st0"
   d="m 543.4,103.4 c 0,-7.4 4.8,-12.4 11.8,-12.4 5.9,0 9.7,3.3 10.7,8.6 h -4.1 c -0.7,-3.2 -3.1,-5.2 -6.6,-5.2 -4.6,0 -7.8,3.7 -7.8,9 0,5.3 3.1,8.9 7.8,8.9 3.5,0 5.8,-2 6.6,-5.1 h 4.1 c -0.9,5.2 -4.9,8.5 -10.8,8.5 -7,0 -11.7,-4.8 -11.7,-12.3 z"
   id="path11"
   style="fill:#ffffff;fill-opacity:1;stroke:none;stroke-opacity:1" />
	<path
   class="st0"
   d="m 592.1,102 v 13.5 h -3.9 v -13.2 c 0,-5 -2.4,-7.7 -6.6,-7.7 -4.5,0 -7.3,3.4 -7.3,8.8 v 12.1 h -3.9 V 82.3 h 3.9 v 13 c 1.4,-2.3 3.9,-4.3 8,-4.3 5.4,0 9.8,3 9.8,11 z"
   id="path12"
   style="fill:#ffffff;fill-opacity:1;stroke:none;stroke-opacity:1" />
	<path
   class="st0"
   d="m 596.9,84.7 c 0,-1.5 1.1,-2.5 2.5,-2.5 1.4,0 2.5,1 2.5,2.5 0,1.5 -1.1,2.5 -2.5,2.5 -1.4,0 -2.5,-1 -2.5,-2.5 z m 0.5,6.6 h 3.9 v 24.2 h -3.9 z"
   id="path13"
   style="fill:#ffffff;fill-opacity:1;stroke:none;stroke-opacity:1" />
	<path
   class="st0"
   d="m 609.7,107.5 c 0.1,2.8 2.7,4.9 6.7,4.9 3.4,0 5.8,-1.5 5.8,-3.7 0,-3 -2.7,-3.3 -6.3,-3.7 -5.4,-0.7 -9.7,-1.8 -9.7,-6.8 0,-4.4 4,-7.3 9.5,-7.3 5.5,0 9.5,2.6 9.9,7.6 h -4 c -0.3,-2.5 -2.6,-4.3 -5.9,-4.3 -3.4,0 -5.6,1.4 -5.6,3.7 0,2.7 2.6,3 6.1,3.4 5.5,0.7 9.9,1.7 9.9,7.1 0,4.5 -4.3,7.3 -9.7,7.3 -6.3,0 -10.6,-2.9 -10.7,-8.2 z"
   id="path14"
   style="fill:#ffffff;fill-opacity:1;stroke:none;stroke-opacity:1" />
	<path
   class="st0"
   d="m 629.5,103.4 c 0,-7.4 4.8,-12.4 11.8,-12.4 5.9,0 9.7,3.3 10.7,8.6 h -4.1 c -0.7,-3.2 -3.1,-5.2 -6.6,-5.2 -4.6,0 -7.8,3.7 -7.8,9 0,5.3 3.1,8.9 7.8,8.9 3.5,0 5.8,-2 6.6,-5.1 h 4.1 c -0.9,5.2 -4.9,8.5 -10.8,8.5 -7.1,0 -11.7,-4.8 -11.7,-12.3 z"
   id="path15"
   style="fill:#ffffff;fill-opacity:1;stroke:none;stroke-opacity:1" />
	<path
   class="st0"
   d="m 678.1,102 v 13.5 h -3.9 v -13.2 c 0,-5 -2.4,-7.7 -6.6,-7.7 -4.5,0 -7.3,3.4 -7.3,8.8 v 12.1 h -3.9 V 82.3 h 3.9 v 13 c 1.4,-2.3 3.9,-4.3 8,-4.3 5.4,0 9.8,3 9.8,11 z"
   id="path16"
   style="fill:#ffffff;fill-opacity:1;stroke:none;stroke-opacity:1" />
	<path
   class="st0"
   d="m 682.4,103.4 c 0,-7.3 4.6,-12.4 11.5,-12.4 6.9,0 11.3,4.3 11.5,11.5 0,0.5 0,1.1 -0.1,1.7 h -18.8 v 0.3 c 0.1,4.6 3,7.8 7.6,7.8 3.4,0 6.1,-1.8 6.9,-4.9 h 3.9 c -0.9,4.8 -4.9,8.4 -10.5,8.4 -7.2,-0.1 -12,-5 -12,-12.4 z m 18.8,-2.5 c -0.4,-4.2 -3.2,-6.5 -7.3,-6.5 -3.6,0 -6.8,2.6 -7.2,6.5 z"
   id="path17"
   style="fill:#ffffff;fill-opacity:1;stroke:none;stroke-opacity:1" />
	<path
   class="st0"
   d="m 722.3,91.3 v 3.8 h -1.9 c -5.1,0 -6.4,4.2 -6.4,8.1 v 12.3 h -4 V 91.3 h 3.4 l 0.5,3.7 c 1.1,-1.8 3,-3.7 7.3,-3.7 z"
   id="path18"
   style="fill:#ffffff;fill-opacity:1;stroke:none;stroke-opacity:1" />
	<path
   class="st0"
   d="m 374.3,131.3 h 4.3 l 7.8,27.9 8.2,-27.9 h 4.2 l 7.9,27.9 7.8,-27.9 h 4.3 l -9.7,33.2 H 404 l -7.6,-26.3 -7.5,26.3 H 384 Z"
   id="path19"
   style="fill:#ffffff;fill-opacity:1;stroke:none;stroke-opacity:1" />
	<path
   class="st0"
   d="m 421.5,133.7 c 0,-1.5 1.1,-2.5 2.5,-2.5 1.4,0 2.5,1 2.5,2.5 0,1.5 -1.1,2.5 -2.5,2.5 -1.4,0 -2.5,-1 -2.5,-2.5 z m 0.6,6.6 h 3.9 v 24.2 h -3.9 z"
   id="path20"
   style="fill:#ffffff;fill-opacity:1;stroke:none;stroke-opacity:1" />
	<path
   class="st0"
   d="m 434.3,156.5 c 0.1,2.8 2.7,4.9 6.7,4.9 3.4,0 5.8,-1.5 5.8,-3.7 0,-3 -2.7,-3.3 -6.3,-3.7 -5.4,-0.7 -9.7,-1.8 -9.7,-6.8 0,-4.4 4,-7.3 9.5,-7.3 5.5,0 9.5,2.6 9.9,7.6 h -4 c -0.3,-2.5 -2.6,-4.3 -5.9,-4.3 -3.4,0 -5.6,1.4 -5.6,3.7 0,2.7 2.6,3 6.1,3.4 5.5,0.7 9.9,1.7 9.9,7.1 0,4.5 -4.3,7.3 -9.7,7.3 -6.3,0 -10.6,-2.9 -10.7,-8.2 z"
   id="path21"
   style="fill:#ffffff;fill-opacity:1;stroke:none;stroke-opacity:1" />
	<path
   class="st0"
   d="m 457.9,156.5 c 0.1,2.8 2.7,4.9 6.7,4.9 3.4,0 5.8,-1.5 5.8,-3.7 0,-3 -2.7,-3.3 -6.3,-3.7 -5.4,-0.7 -9.7,-1.8 -9.7,-6.8 0,-4.4 4,-7.3 9.5,-7.3 5.5,0 9.5,2.6 9.9,7.6 h -4 c -0.3,-2.5 -2.6,-4.3 -5.9,-4.3 -3.4,0 -5.6,1.4 -5.6,3.7 0,2.7 2.6,3 6.1,3.4 5.5,0.7 9.9,1.7 9.9,7.1 0,4.5 -4.3,7.3 -9.7,7.3 -6.3,0 -10.6,-2.9 -10.7,-8.2 z"
   id="path22"
   style="fill:#ffffff;fill-opacity:1;stroke:none;stroke-opacity:1" />
	<path
   class="st0"
   d="m 477.7,152.4 c 0,-7.3 4.6,-12.4 11.5,-12.4 6.8,0 11.3,4.3 11.5,11.5 0,0.5 0,1.1 -0.1,1.7 h -18.8 v 0.3 c 0.1,4.6 3,7.8 7.6,7.8 3.4,0 6.1,-1.8 6.9,-4.9 h 3.9 c -0.9,4.8 -4.9,8.4 -10.5,8.4 -7.2,-0.1 -12,-5 -12,-12.4 z m 18.8,-2.5 c -0.4,-4.2 -3.2,-6.5 -7.3,-6.5 -3.6,0 -6.8,2.6 -7.2,6.5 z"
   id="path23"
   style="fill:#ffffff;fill-opacity:1;stroke:none;stroke-opacity:1" />
	<path
   class="st0"
   d="m 526.7,151 v 13.5 h -3.9 v -13.2 c 0,-5 -2.3,-7.7 -6.5,-7.7 -4.6,0 -7.3,3.4 -7.3,8.8 v 12.1 h -3.9 v -24.2 h 3.4 l 0.5,3.3 c 1.4,-1.8 3.9,-3.6 8,-3.6 5.4,0 9.7,3 9.7,11 z"
   id="path24"
   style="fill:#ffffff;fill-opacity:1;stroke:none;stroke-opacity:1" />
	<path
   class="st0"
   d="m 534.7,156.5 c 0.1,2.8 2.7,4.9 6.7,4.9 3.4,0 5.8,-1.5 5.8,-3.7 0,-3 -2.7,-3.3 -6.3,-3.7 -5.4,-0.7 -9.7,-1.8 -9.7,-6.8 0,-4.4 4,-7.3 9.5,-7.3 5.5,0 9.5,2.6 9.9,7.6 h -4 c -0.3,-2.5 -2.6,-4.3 -5.9,-4.3 -3.4,0 -5.6,1.4 -5.6,3.7 0,2.7 2.6,3 6.1,3.4 5.5,0.7 9.9,1.7 9.9,7.1 0,4.5 -4.3,7.3 -9.7,7.3 -6.3,0 -10.6,-2.9 -10.7,-8.2 z"
   id="path25"
   style="fill:#ffffff;fill-opacity:1;stroke:none;stroke-opacity:1" />
	<path
   class="st0"
   d="m 554.5,152.4 c 0,-7.4 4.8,-12.4 11.8,-12.4 5.9,0 9.7,3.3 10.7,8.6 h -4.1 c -0.7,-3.2 -3.1,-5.2 -6.6,-5.2 -4.6,0 -7.8,3.7 -7.8,9 0,5.3 3.1,8.9 7.8,8.9 3.5,0 5.8,-2 6.6,-5.1 h 4.1 c -0.9,5.2 -4.9,8.5 -10.8,8.5 -7,0 -11.7,-4.7 -11.7,-12.3 z"
   id="path26"
   style="fill:#ffffff;fill-opacity:1;stroke:none;stroke-opacity:1" />
	<path
   class="st0"
   d="m 602.9,151 v 13.5 H 599 v -13.2 c 0,-5 -2.4,-7.7 -6.6,-7.7 -4.5,0 -7.3,3.4 -7.3,8.8 v 12.1 h -3.9 v -33.2 h 3.9 v 13 c 1.4,-2.3 3.9,-4.3 8,-4.3 5.4,0 9.8,3 9.8,11 z"
   id="path27"
   style="fill:#ffffff;fill-opacity:1;stroke:none;stroke-opacity:1" />
	<path
   class="st0"
   d="m 630.5,160.9 v 3.6 h -2.1 c -3.2,0 -4.3,-1.4 -4.4,-3.7 -1.5,2.2 -3.9,4 -8.1,4 -5.3,0 -8.9,-2.7 -8.9,-7.1 0,-4.8 3.4,-7.5 9.7,-7.5 h 7.1 v -1.7 c 0,-3.1 -2.2,-5 -6,-5 -3.4,0 -5.7,1.6 -6.2,4.1 h -3.9 c 0.6,-4.7 4.4,-7.5 10.2,-7.5 6.2,0 9.7,3.1 9.7,8.7 v 10.6 c 0,1.3 0.5,1.6 1.6,1.6 h 1.3 z m -6.7,-7.5 h -7.5 c -3.5,0 -5.4,1.3 -5.4,4 0,2.4 2,4 5.3,4 4.8,0 7.6,-2.8 7.6,-6.8 z"
   id="path28"
   style="fill:#ffffff;fill-opacity:1;stroke:none;stroke-opacity:1" />
	<path
   class="st0"
   d="m 659.4,160.9 v 3.6 h -4.5 c -4.6,0 -6.3,-2 -6.3,-6.3 v -14.3 h -9.4 v 20.6 h -3.9 v -20.6 h -4.4 v -3.6 h 4.4 v -2.7 c 0,-4.3 1.8,-6.3 6.3,-6.3 h 3.7 v 3.6 h -3.5 c -1.9,0 -2.7,0.8 -2.7,2.7 v 2.8 h 9.4 v -6.8 h 3.9 v 6.8 h 6.1 v 3.6 h -6.1 v 14.3 c 0,2 0.7,2.8 2.7,2.8 h 4.3 z"
   id="path29"
   style="fill:#ffffff;fill-opacity:1;stroke:none;stroke-opacity:1" />
	<path
   class="st0"
   d="m 665.7,156.5 c 0.1,2.8 2.7,4.9 6.7,4.9 3.4,0 5.8,-1.5 5.8,-3.7 0,-3 -2.7,-3.3 -6.3,-3.7 -5.4,-0.7 -9.7,-1.8 -9.7,-6.8 0,-4.4 4,-7.3 9.5,-7.3 5.5,0 9.5,2.6 9.9,7.6 h -4 c -0.3,-2.5 -2.6,-4.3 -5.9,-4.3 -3.4,0 -5.6,1.4 -5.6,3.7 0,2.7 2.6,3 6.1,3.4 5.5,0.7 9.9,1.7 9.9,7.1 0,4.5 -4.3,7.3 -9.7,7.3 -6.3,0 -10.6,-2.9 -10.7,-8.2 z"
   id="path30"
   style="fill:#ffffff;fill-opacity:1;stroke:none;stroke-opacity:1" />
	<path
   class="st0"
   d="m 683.8,140.3 h 4.4 v -2.7 c 0,-4.3 1.8,-6.3 6.3,-6.3 h 4.4 v 3.6 h -4.2 c -1.9,0 -2.7,0.8 -2.7,2.7 v 2.8 h 6.8 V 144 H 692 v 20.6 h -3.9 V 144 h -4.4 v -3.7 z"
   id="path31"
   style="fill:#ffffff;fill-opacity:1;stroke:none;stroke-opacity:1" />
	<path
   class="st0"
   d="m 700.9,152.4 c 0,-7.3 4.9,-12.4 12,-12.4 7.1,0 12,5 12,12.4 0,7.3 -4.9,12.4 -12,12.4 -7.1,-0.1 -12,-5.1 -12,-12.4 z m 20,0 c 0,-5.2 -3.2,-8.9 -8,-8.9 -4.8,0 -8,3.7 -8,8.9 0,5.2 3.2,8.9 8,8.9 4.8,0 8,-3.8 8,-8.9 z"
   id="path32"
   style="fill:#ffffff;fill-opacity:1;stroke:none;stroke-opacity:1" />
	<path
   class="st0"
   d="m 750.9,151 v 13.5 H 747 v -13.2 c 0,-5 -2.3,-7.7 -6.5,-7.7 -4.6,0 -7.3,3.4 -7.3,8.8 v 12.1 h -3.9 v -24.2 h 3.4 l 0.5,3.3 c 1.4,-1.8 3.9,-3.6 8,-3.6 5.4,0 9.7,3 9.7,11 z"
   id="path33"
   style="fill:#ffffff;fill-opacity:1;stroke:none;stroke-opacity:1" />
	<path
   class="st0"
   d="m 775,131.3 h 3.9 v 33.2 h -3.4 l -0.5,-3.9 c -1.6,2.2 -4.2,4.2 -8.3,4.2 -6.7,0 -11.6,-4.5 -11.6,-12.4 0,-7.4 4.9,-12.4 11.6,-12.4 4.1,0 6.8,1.7 8.3,4 z m 0,21.2 c 0,-5.3 -3.2,-9 -8,-9 -4.8,0 -8,3.7 -8,8.9 0,5.3 3.2,8.9 8,8.9 4.8,0 8,-3.7 8,-8.8 z"
   id="path34"
   style="fill:#ffffff;fill-opacity:1;stroke:none;stroke-opacity:1" />
	<path
   class="st0"
   d="m 787.1,156.5 c 0.1,2.8 2.7,4.9 6.7,4.9 3.4,0 5.8,-1.5 5.8,-3.7 0,-3 -2.7,-3.3 -6.3,-3.7 -5.4,-0.7 -9.7,-1.8 -9.7,-6.8 0,-4.4 4,-7.3 9.5,-7.3 5.5,0 9.5,2.6 9.9,7.6 h -4 c -0.3,-2.5 -2.6,-4.3 -5.9,-4.3 -3.4,0 -5.6,1.4 -5.6,3.7 0,2.7 2.6,3 6.1,3.4 5.5,0.7 9.9,1.7 9.9,7.1 0,4.5 -4.3,7.3 -9.7,7.3 -6.3,0 -10.6,-2.9 -10.7,-8.2 z"
   id="path35"
   style="fill:#ffffff;fill-opacity:1;stroke:none;stroke-opacity:1" />
</g>
<text
   class="st0 st1 st2"
   id="text35"
   x="409.80551"
   y="11.199"> </text>
</svg>
